<svg width="26" height="26" viewBox="0 0 26 26" fill="none" xmlns="http://www.w3.org/2000/svg">
<g clip-path="url(#clip0_12_222)">
<path d="M13 26C20.1797 26 26 20.1797 26 13C26 5.8203 20.1797 0 13 0C5.8203 0 0 5.8203 0 13C0 20.1797 5.8203 26 13 26Z" fill="#0E142C"/>
<path d="M15.5689 12.3493C14.3201 13.0356 13.0714 13.7219 11.8205 14.4082L11.8184 14.4061C11.5056 14.616 11.1929 14.8259 10.8802 15.0378C11.0187 14.9077 11.13 14.7944 11.216 14.7062C11.3461 14.5698 11.4049 14.5006 11.4574 14.425C11.5077 14.3557 11.5497 14.2886 11.5854 14.2235C12.1206 12.2716 12.6558 10.3218 13.191 8.36994C14.0452 8.32167 14.0284 8.32167 14.8826 8.27339C15.145 8.92822 15.4094 9.58305 15.6718 10.2379C16.7883 10.2799 16.9122 10.2841 18.0308 10.326C18.608 9.15279 19.1831 7.97956 19.7603 6.80633C17.3529 6.66361 14.9456 6.52089 12.5383 6.37817C11.8016 6.79374 11.0229 7.23239 10.2862 7.64795C8.93671 10.2064 7.58928 12.7669 6.23975 15.3254C6.93865 16.6266 7.63755 17.9279 8.33855 19.2313C10.8403 19.1326 13.3442 19.0319 15.846 18.9332C16.1125 19.1494 16.3791 19.3656 16.6435 19.5797C16.7527 19.6678 16.9164 19.6216 16.9625 19.4894C17.6195 17.6005 18.2785 15.7116 18.9354 13.8226C18.4947 13.2014 18.331 12.9726 17.8902 12.3535H15.5689V12.3493ZM13.8311 16.4881H13.3064V15.9634H13.8311V16.4881ZM14.9162 16.4881H14.3915V15.9634H14.9162V16.4881ZM16.0013 16.4881H15.4766V15.9634H16.0013V16.4881Z" fill="#0FF789"/>
</g>
<defs>
<clipPath id="clip0_12_222">
<rect width="26" height="26" fill="white"/>
</clipPath>
</defs>
</svg>
