<svg width="24" height="25" viewBox="0 0 24 25" fill="none" xmlns="http://www.w3.org/2000/svg">
<g clip-path="url(#clip0_44_1999)">
<path d="M11.7541 24.2541C18.2458 24.2541 23.5083 18.9916 23.5083 12.5C23.5083 6.00836 18.2458 0.74585 11.7541 0.74585C5.26251 0.74585 0 6.00836 0 12.5C0 18.9916 5.26251 24.2541 11.7541 24.2541Z" fill="#0FF789"/>
<path d="M14.0768 11.9118C12.9477 12.5323 11.8186 13.1529 10.6876 13.7734L10.6857 13.7715C10.403 13.9613 10.1202 14.151 9.83746 14.3427C9.96271 14.2251 10.0633 14.1226 10.1411 14.0429C10.2587 13.9195 10.3119 13.8569 10.3593 13.7886C10.4049 13.726 10.4428 13.6652 10.4751 13.6064C10.959 11.8416 11.4429 10.0787 11.9268 8.31383C12.6991 8.27018 12.684 8.27018 13.4563 8.22653C13.6935 8.8186 13.9326 9.41068 14.1698 10.0027C15.1794 10.0407 15.2914 10.0445 16.3028 10.0824C16.8247 9.02165 17.3446 7.96086 17.8665 6.90006C15.6899 6.77102 13.5132 6.64198 11.3366 6.51294C10.6705 6.88868 9.9665 7.28529 9.30042 7.66103C8.08022 9.97428 6.86192 12.2894 5.64172 14.6027C6.27365 15.7792 6.90557 16.9558 7.53939 18.1342C9.80141 18.0451 12.0653 17.954 14.3273 17.8648C14.5683 18.0602 14.8093 18.2557 15.0485 18.4493C15.1471 18.529 15.2952 18.4872 15.3369 18.3677C15.9309 16.6598 16.5267 14.9519 17.1207 13.244C16.7222 12.6823 16.5742 12.4754 16.1757 11.9156H14.0768V11.9118ZM12.5056 15.654H12.0312V15.1796H12.5056V15.654ZM13.4867 15.654H13.0123V15.1796H13.4867V15.654ZM14.4678 15.654H13.9934V15.1796H14.4678V15.654Z" fill="#0E142C"/>
</g>
<defs>
<clipPath id="clip0_44_1999">
<rect width="23.5083" height="23.5083" fill="white" transform="translate(0 0.74585)"/>
</clipPath>
</defs>
</svg>
