<svg width="25" height="28" viewBox="0 0 25 28" fill="none" xmlns="http://www.w3.org/2000/svg">
<g clip-path="url(#clip0_26_14)">
<path d="M3.51387 28.0001C2.9381 27.8694 2.36678 27.7301 1.86521 27.4041C0.716639 26.6589 0.0859625 25.6221 0.0162171 24.2852C-0.0134617 23.7209 0.00731348 23.1551 0.00731348 22.5908C0.00731348 16.3931 0.0102814 10.1969 0.0043456 3.99926C0.00286165 2.83756 0.364944 1.82376 1.26867 1.04116C2.70661 -0.202393 4.49921 -0.333067 6.16716 0.660625C10.711 3.36743 15.2519 6.07711 19.7927 8.78822C20.9858 9.50046 22.2041 10.1782 23.3572 10.9479C25.5608 12.4184 25.5504 15.678 23.329 17.124C21.9252 18.0387 20.4561 18.8587 19.0122 19.716C16.3099 21.3199 13.6032 22.9196 10.8995 24.5236C10.5745 24.716 10.2436 24.8395 9.85773 24.7261C9.43332 24.6011 9.15731 24.3297 9.06679 23.9147C8.97627 23.5026 9.0935 23.1364 9.43332 22.8564C9.54017 22.7688 9.66185 22.697 9.78205 22.6267C13.7694 20.2631 17.7568 17.898 21.7471 15.5373C22.2041 15.2659 22.5707 14.9313 22.6894 14.4029C22.86 13.6361 22.5544 12.9999 21.7872 12.5418C19.7215 11.3083 17.6529 10.0777 15.5872 8.84422C12.0347 6.72617 8.48657 4.60811 4.93697 2.49292C4.06738 1.97597 3.08056 2.15691 2.54634 2.92372C2.3742 3.1707 2.27923 3.44354 2.26884 3.74222C2.26588 3.81545 2.26439 3.88869 2.26439 3.96049C2.26439 10.632 2.26439 17.3021 2.26439 23.9736C2.26439 24.8553 2.69622 25.4728 3.4649 25.7284C3.91751 25.8791 4.33449 25.8117 4.73961 25.5905C4.99782 25.4498 5.26493 25.345 5.57062 25.3909C6.06626 25.467 6.42982 25.803 6.52628 26.2726C6.61828 26.7221 6.41201 27.1643 5.98612 27.4128C5.53946 27.6727 5.06014 27.8565 4.54521 27.9469C4.48289 27.9584 4.42205 27.9814 4.35972 28.0001C4.07926 28.0001 3.79731 28.0001 3.51387 28.0001Z" fill="#0FF789"/>
</g>
<defs>
<clipPath id="clip0_26_14">
<rect width="25" height="28" fill="white"/>
</clipPath>
</defs>
</svg>
