<svg width="35" height="30" viewBox="0 0 35 30" fill="none" xmlns="http://www.w3.org/2000/svg">
<g clip-path="url(#clip0_16_50)">
<path d="M6.50423 13.0872C2.85853 13.0496 -0.0467396 10.0946 -0.00030556 6.47016C0.0473835 2.85947 2.99909 -0.0315786 6.60714 -0.000235827C10.2415 0.0311069 13.1343 3.01619 13.0903 6.69081C13.0477 10.22 10.0571 13.1236 6.50423 13.0872ZM11.622 6.57171C11.6396 3.77719 9.38063 1.49544 6.57953 1.48039C3.75834 1.4641 1.45672 3.73832 1.45296 6.54538C1.44919 9.31858 3.74454 11.6154 6.52933 11.6229C9.32541 11.6304 11.6044 9.36998 11.622 6.57171Z" fill="#0FF789"/>
<path d="M-0.000102269 23.4367C0.00868256 19.831 2.94532 16.9011 6.5471 16.9023C10.1652 16.9049 13.1031 19.8623 13.0918 23.4906C13.0792 27.0812 10.1112 30.0199 6.51698 29.9998C2.90642 29.9785 -0.00888709 27.0423 -0.000102269 23.4367ZM11.6222 23.4354C11.6047 20.6108 9.3206 18.3604 6.49188 18.3817C3.71086 18.4018 1.42555 20.7186 1.45441 23.4918C1.48202 26.2801 3.77235 28.5305 6.5722 28.5217C9.36703 28.5129 11.6398 26.2249 11.6222 23.4354Z" fill="#0FF789"/>
<path d="M25.5776 21.7793C22.8242 21.7793 20.0708 21.7793 17.3161 21.7793C17.1592 21.7793 16.9998 21.7919 16.848 21.7655C16.4514 21.6966 16.2443 21.4383 16.2468 21.0472C16.2494 20.6786 16.4489 20.4253 16.8216 20.3539C16.9885 20.3213 17.1642 20.3313 17.3362 20.3313C22.8593 20.33 28.3825 20.33 33.9056 20.3313C34.6636 20.3313 34.9924 20.5457 35.0012 21.0434C35.01 21.5587 34.6762 21.7793 33.8868 21.7793C31.1158 21.7793 28.3461 21.7793 25.5776 21.7793Z" fill="#0FF789"/>
<path d="M25.5939 4.87809C22.8242 4.87809 20.0545 4.87809 17.286 4.87809C17.1291 4.87809 16.9685 4.89439 16.8179 4.85929C16.4539 4.77654 16.2469 4.53082 16.2456 4.15972C16.2444 3.79113 16.4301 3.53036 16.8053 3.45513C16.9873 3.41878 17.1793 3.42379 17.3663 3.42379C22.8744 3.42254 28.3812 3.42254 33.8893 3.42379C34.0612 3.42379 34.2357 3.41878 34.4038 3.44761C34.8004 3.51782 35.005 3.77358 34.9962 4.16975C34.9887 4.56843 34.7615 4.80413 34.3712 4.86806C34.2344 4.89063 34.0901 4.87809 33.9495 4.87809C31.1635 4.87809 28.3787 4.87809 25.5939 4.87809Z" fill="#0FF789"/>
<path d="M22.572 9.6685C20.7422 9.6685 18.9137 9.67226 17.084 9.666C16.5343 9.66474 16.2055 9.35132 16.2469 8.88744C16.2783 8.53891 16.4665 8.30322 16.8179 8.24053C17.0011 8.20793 17.1919 8.21044 17.3789 8.21044C20.8652 8.20919 24.3528 8.20919 27.8391 8.20919C27.9646 8.20919 28.0901 8.20543 28.2144 8.21546C28.6812 8.25307 28.9698 8.53641 28.9648 8.94762C28.9598 9.35633 28.6611 9.6497 28.2005 9.66349C27.7626 9.67728 27.3246 9.6685 26.8878 9.6685C25.4484 9.6685 24.0102 9.6685 22.572 9.6685Z" fill="#0FF789"/>
<path d="M22.6321 25.1241C24.4769 25.1241 26.3218 25.1203 28.1666 25.1266C28.6623 25.1279 28.9673 25.4225 28.9635 25.8525C28.9597 26.2625 28.6635 26.5408 28.1992 26.5684C28.0586 26.5759 27.9181 26.5721 27.7775 26.5721C25.2764 26.5721 22.7739 26.5721 20.2728 26.5721C19.1935 26.5721 18.1155 26.5809 17.0362 26.5671C16.4326 26.5596 16.0799 26.0694 16.2958 25.5642C16.4439 25.2169 16.7375 25.1203 17.0977 25.1216C18.9425 25.1279 20.7873 25.1241 22.6321 25.1241Z" fill="#0FF789"/>
<path d="M4.54669 5.96749C4.98467 5.96749 5.20053 6.31101 5.44525 6.58055C5.68871 6.84759 5.84307 6.86389 6.1016 6.58808C6.68767 5.95997 7.30889 5.3632 7.92131 4.76017C8.3342 4.35271 8.74207 4.31761 9.07213 4.64608C9.39465 4.96703 9.357 5.39204 8.95541 5.79699C8.11834 6.64073 7.27877 7.48072 6.43417 8.31694C5.95602 8.78959 5.59584 8.78081 5.11017 8.3019C4.74372 7.93958 4.3735 7.57976 4.01834 7.2049C3.79747 6.97171 3.72217 6.69339 3.87276 6.38623C4.00956 6.10415 4.2342 5.96373 4.54669 5.96749Z" fill="#0FF789"/>
<path d="M9.28677 22.0752C9.27297 22.287 9.19139 22.4663 9.0408 22.6168C8.14474 23.5119 7.25622 24.4133 6.35139 25.2997C5.96862 25.6758 5.58585 25.6633 5.19932 25.2909C4.81655 24.9223 4.44006 24.5462 4.07235 24.1638C3.7197 23.7965 3.70464 23.3978 4.01337 23.0856C4.30954 22.786 4.73623 22.8086 5.10269 23.122C5.34364 23.3276 5.50804 23.7576 5.82681 23.695C6.08408 23.6436 6.28487 23.2975 6.507 23.0781C7.01778 22.5716 7.52353 22.0601 8.03682 21.5574C8.2715 21.3267 8.55763 21.2728 8.85882 21.4044C9.14496 21.5273 9.27297 21.7693 9.28677 22.0752Z" fill="#0FF789"/>
</g>
<defs>
<clipPath id="clip0_16_50">
<rect width="35" height="30" fill="white"/>
</clipPath>
</defs>
</svg>
