<svg width="29" height="30" viewBox="0 0 29 30" fill="none" xmlns="http://www.w3.org/2000/svg">
<path d="M0.698574 29.9986C0.536025 29.8929 0.362443 29.7982 0.299188 29.595C0.179299 29.2112 0.440408 28.8509 0.872891 28.8311C1.23403 28.8149 1.59738 28.8149 1.95851 28.8311C2.16961 28.8406 2.21815 28.7665 2.21742 28.5662C2.21006 26.9746 2.2461 25.3822 2.20271 23.7921C2.16961 22.5864 3.01545 21.9084 4.02826 21.9598C4.84836 22.0016 5.67214 21.9671 6.49371 21.9686C7.60214 21.9708 8.23909 22.6011 8.24351 23.7136C8.24865 25.2663 8.24498 26.8183 8.24498 28.371C8.24498 28.8267 8.24498 28.8267 8.71571 28.8267C9.54758 28.8267 10.3794 28.8164 11.2113 28.8326C11.4577 28.8377 11.5166 28.7687 11.5166 28.5266C11.5085 25.2751 11.5099 22.0244 11.5121 18.7729C11.5129 17.8887 11.9763 17.2664 12.7633 17.0918C12.9236 17.0558 13.0928 17.0507 13.2583 17.0499C14.0997 17.0463 14.9419 17.047 15.7833 17.0485C16.913 17.0499 17.5529 17.6832 17.5529 18.8044C17.5537 22.0361 17.5566 25.2678 17.5471 28.4994C17.5463 28.7672 17.6155 28.8384 17.8825 28.8333C18.7533 28.8157 19.6242 28.8164 20.495 28.8333C20.7605 28.8384 20.8356 28.7702 20.8348 28.4987C20.8253 24.8179 20.8282 21.1372 20.8282 17.4565C20.8282 15.0738 20.8267 12.6919 20.8289 10.3092C20.8297 9.44116 21.2599 8.84824 22.0219 8.64498C22.2036 8.59655 22.3904 8.60022 22.5758 8.59949C23.4077 8.59802 24.241 8.62737 25.0707 8.59141C26.1085 8.54592 26.8697 9.2577 26.8661 10.3922C26.8477 16.3968 26.8572 22.4015 26.8572 28.4062C26.8572 28.8281 26.8572 28.8281 27.2735 28.8281C27.4986 28.8281 27.7237 28.8274 27.9487 28.8281C28.379 28.8296 28.6247 28.9661 28.7026 29.2479C28.788 29.5539 28.6747 29.7637 28.2988 30C19.0997 29.9986 9.89915 29.9986 0.698574 29.9986ZM22.0036 19.426C22.0036 22.4617 22.0058 25.4982 21.9991 28.5339C21.9984 28.7489 22.0352 28.837 22.2816 28.8333C23.3282 28.8186 24.3756 28.8215 25.4222 28.8311C25.6245 28.8326 25.687 28.779 25.687 28.5721C25.6819 22.4903 25.6833 16.4086 25.6819 10.3269C25.6819 9.8807 25.5693 9.7721 25.1229 9.77063C24.291 9.76843 23.4591 9.76916 22.628 9.7699C22.0874 9.77063 22.0043 9.85575 22.0043 10.4054C22.0036 13.4125 22.0036 16.4189 22.0036 19.426ZM16.3791 23.6703C16.3791 22.0412 16.3798 20.4115 16.3783 18.7824C16.3783 18.3546 16.2452 18.2218 15.8193 18.2203C14.9683 18.2181 14.1181 18.2189 13.2671 18.2203C12.8221 18.2211 12.686 18.3524 12.686 18.7934C12.6846 22.0522 12.6875 25.3103 12.6809 28.5691C12.6801 28.7724 12.7324 28.8333 12.9405 28.8318C13.9967 28.8215 15.0529 28.8208 16.1084 28.8326C16.3283 28.8348 16.3842 28.7775 16.3835 28.5581C16.3746 26.9291 16.3791 25.2993 16.3791 23.6703ZM3.38909 26.1013C3.38909 26.921 3.39424 27.7407 3.38542 28.5603C3.38321 28.7496 3.41337 28.8348 3.63476 28.8318C4.70052 28.8201 5.76702 28.8237 6.83352 28.8296C7.00342 28.8304 7.07477 28.7944 7.07403 28.6065C7.06741 26.957 7.0733 25.3081 7.06815 23.6585C7.06741 23.2659 6.92987 23.1419 6.52681 23.1412C5.65596 23.139 4.78584 23.139 3.91499 23.1412C3.52222 23.1427 3.3913 23.274 3.38983 23.671C3.38689 24.4811 3.38909 25.2912 3.38909 26.1013Z" fill="#0FF789"/>
<path d="M24.8059 1.17267C24.1572 1.17267 23.5357 1.17267 22.9142 1.17267C22.3625 1.17267 22.0705 0.962804 22.0786 0.575358C22.0867 0.197451 22.3699 0.000792504 22.9068 0.000792504C23.9733 0.000792504 25.0398 -0.0014089 26.1063 0.0015263C26.6329 0.0029939 26.8499 0.20112 26.8543 0.716981C26.8632 1.77145 26.8514 2.82592 26.8595 3.87966C26.8646 4.48578 26.338 4.6729 26.0033 4.49312C25.7437 4.35369 25.6841 4.11521 25.6834 3.84957C25.6819 3.3616 25.6826 2.87362 25.6826 2.38491C25.6826 2.28878 25.6826 2.19339 25.6826 2.08992C25.5311 2.09506 25.4833 2.20513 25.4127 2.27484C23.4871 4.19152 21.5638 6.11115 19.6396 8.0293C19.1741 8.49379 18.9232 8.49379 18.4591 8.0315C17.8567 7.43125 17.2477 6.83761 16.6579 6.22562C16.4865 6.0473 16.4004 6.05684 16.229 6.22782C12.9965 9.46388 9.75724 12.6933 6.51875 15.9235C6.443 15.9991 6.36944 16.0791 6.28633 16.1466C6.03037 16.355 5.70307 16.3521 5.48609 16.1466C5.26102 15.9323 5.25072 15.5977 5.46476 15.3277C5.5133 15.2668 5.57067 15.2132 5.62584 15.1582C9.03643 11.7548 12.447 8.35144 15.8583 4.94807C16.3107 4.49679 16.5718 4.49605 17.0219 4.94514C17.6449 5.56593 18.2694 6.18599 18.8887 6.81046C18.9902 6.91319 19.0534 6.96822 19.1873 6.83394C21.0364 4.97889 22.8921 3.13045 24.7456 1.27981C24.7647 1.25999 24.7728 1.23211 24.8059 1.17267Z" fill="#0FF789"/>
<path d="M3.91348 18.3464C3.59133 18.3494 3.33463 18.0969 3.33169 17.7763C3.32875 17.4615 3.59059 17.1929 3.90245 17.19C4.21284 17.187 4.48277 17.4534 4.48645 17.766C4.48939 18.083 4.2327 18.3435 3.91348 18.3464Z" fill="#0FF789"/>
</svg>
