<svg width="34" height="30" viewBox="0 0 34 30" fill="none" xmlns="http://www.w3.org/2000/svg">
<g clip-path="url(#clip0_16_43)">
<path d="M33.9999 6.30973C33.6281 8.24641 32.5462 9.89428 31.7954 11.6768C31.6951 11.9151 31.688 12.0773 31.838 12.3023C34.4543 16.2341 33.2074 21.595 29.1311 23.9809C28.9776 24.0703 28.8267 24.151 28.6386 24.151C27.4209 24.1474 26.2033 24.1519 24.9856 24.1474C24.6253 24.1456 24.399 23.9233 24.4061 23.607C24.4132 23.3058 24.6351 23.1047 24.9776 23.0896C25.0548 23.0861 25.1329 23.0887 25.2102 23.0887C26.2397 23.0887 27.2691 23.0869 28.2986 23.0905C28.469 23.0914 28.6173 23.0621 28.7664 22.9682C31.262 21.4098 32.5595 18.3985 31.9942 15.4598C31.443 12.592 29.1249 10.2859 26.2583 9.75341C22.8796 9.12616 19.6598 10.8095 18.2628 13.9342C18.254 13.9546 18.2477 13.9758 18.2389 13.9962C18.0525 14.4073 17.7827 14.5588 17.4756 14.4241C17.1579 14.285 17.0825 13.9918 17.2582 13.5807C17.4676 13.0926 17.7117 12.6203 18.0259 12.1924C18.1546 12.0179 18.1599 11.8823 18.0676 11.6874C17.5005 10.4905 16.9351 9.29272 16.3955 8.0834C14.8761 4.67958 16.7878 0.912527 20.4292 0.113401C20.8224 0.0265785 21.2182 0 21.6185 0C23.8212 0.00265785 26.024 -0.0017719 28.2268 0.0017719C31.1555 0.00620164 33.4905 2.00845 33.9396 4.89487C33.9511 4.97017 33.9795 5.04193 33.999 5.11635C33.9999 5.51326 33.9999 5.91194 33.9999 6.30973ZM30.9123 11.0894C31.5016 9.79859 32.1477 8.56092 32.6412 7.26567C33.7665 4.31014 31.5735 1.11541 28.4078 1.06845C26.0728 1.0339 23.736 1.03302 21.401 1.07023C18.5442 1.11541 16.384 3.87603 17.0452 6.65082C17.4162 8.20654 18.3303 9.54698 18.9187 11.0389C19.2284 10.7749 19.4938 10.5233 19.7858 10.308C19.9588 10.1796 19.9553 10.0777 19.871 9.90048C19.4397 8.99327 19.0172 8.08251 18.6001 7.1691C17.5351 4.83994 19.1015 2.39295 21.6611 2.38497C22.9781 2.38054 24.2951 2.38409 25.6131 2.38409C25.7684 2.38409 25.9237 2.377 26.0781 2.39029C26.3595 2.41421 26.5263 2.57988 26.5556 2.85453C26.5849 3.13094 26.4509 3.32762 26.1829 3.40559C26.0586 3.44191 25.921 3.44368 25.7897 3.44457C24.4167 3.44723 23.0447 3.44103 21.6717 3.44811C19.8754 3.45697 18.8326 5.08889 19.5737 6.7279C19.9651 7.59258 20.3786 8.44752 20.7656 9.31398C20.8605 9.52572 20.9333 9.55319 21.1472 9.44953C23.6712 8.22869 26.1971 8.23667 28.7113 9.48497C28.9066 9.58154 28.9873 9.56913 29.0796 9.36271C29.4675 8.49625 29.8757 7.63954 30.2715 6.77662C31.0463 5.08535 30.0035 3.4552 28.1442 3.44634C27.9348 3.44546 27.7191 3.45963 27.5159 3.41888C27.2319 3.36218 27.0721 3.16107 27.0979 2.86782C27.1236 2.57988 27.2993 2.39826 27.5984 2.39206C28.0182 2.3832 28.4406 2.35042 28.8569 2.43016C31.0419 2.84744 32.2019 5.0756 31.2868 7.10531C30.8555 8.06125 30.4056 9.00833 29.9663 9.95984C29.9139 10.0741 29.8251 10.1778 29.9858 10.3027C30.2911 10.5384 30.576 10.8006 30.9123 11.0894Z" fill="#0FF789"/>
<path d="M9.97453 23.2624C10.0012 22.4739 10.1245 21.7014 10.3624 20.9501C10.4289 20.741 10.3996 20.6444 10.1991 20.5399C9.50327 20.1775 8.83232 19.7656 8.12765 19.4245C7.46114 19.102 7.2153 18.5917 7.29695 17.8918C7.38481 17.1396 7.72473 16.5274 8.36727 16.1075C8.76753 15.8461 9.17756 15.8116 9.61509 16.0614C10.3828 16.4991 11.17 16.9031 11.9377 17.3407C12.1533 17.4639 12.2678 17.4399 12.432 17.2583C13.3692 16.2209 14.4706 15.435 15.8586 15.109C16.7736 14.8946 17.6549 14.9735 18.5096 15.3766C19.429 15.8098 20.344 16.2545 21.2795 16.6488C22.8619 17.315 23.6704 18.5633 23.9606 20.1775C24.5792 23.6115 22.7678 27.5203 19.7414 29.2798C18.3303 30.101 16.8606 30.2738 15.3421 29.5145C14.5123 29.0999 13.6718 28.7021 12.8145 28.3486C11.1993 27.6842 10.4085 26.4137 10.089 24.7783C9.99317 24.2795 9.96388 23.7718 9.97453 23.2624ZM14.2221 24.9386C14.2443 25.3763 14.2771 25.8051 14.3392 26.2321C14.5176 27.4458 15.4814 28.5878 16.5544 28.8359C17.5049 29.0556 18.396 28.8953 19.224 28.3752C21.0887 27.2049 22.2229 25.5109 22.7758 23.4104C23.1317 22.0584 23.1956 20.7047 22.64 19.3837C22.2016 18.3418 21.4445 17.6588 20.289 17.5392C19.4113 17.4488 18.5974 17.7084 17.8733 18.1983C15.4885 19.8143 14.3739 22.1195 14.2221 24.9386ZM18.6729 16.6355C18.1138 16.3626 17.5964 16.0818 16.9831 16.0534C15.895 16.0038 14.9587 16.4114 14.1493 17.0811C12.0477 18.8229 11.0111 21.0821 11.0289 23.8055C11.0342 24.6312 11.249 25.4197 11.6927 26.1338C12.1462 26.8638 12.8376 27.2492 13.6497 27.5318C12.0983 23.7452 14.5008 18.038 18.6729 16.6355ZM8.35485 18.0902C8.31935 18.2373 8.3868 18.3569 8.56252 18.4499C9.25477 18.8167 9.94258 19.1932 10.6268 19.576C10.7786 19.661 10.8505 19.6433 10.9295 19.4847C11.0866 19.1693 11.2508 18.8548 11.4433 18.5607C11.5623 18.379 11.5259 18.3126 11.3484 18.2187C10.7041 17.8794 10.0677 17.5232 9.42783 17.175C8.9548 16.9172 8.77463 16.9722 8.52791 17.4523C8.43117 17.6384 8.35307 17.8333 8.35485 18.0902Z" fill="#0FF789"/>
<path d="M3.68393 22.0663C3.43099 21.4151 3.25438 20.7604 3.20823 20.0756C3.19758 19.9214 3.17983 19.7664 3.18959 19.6131C3.21 19.2933 3.42389 19.0913 3.72031 19.0913C4.01763 19.0913 4.22619 19.2898 4.24394 19.6149C4.275 20.2014 4.34245 20.7808 4.5377 21.339C5.198 23.2287 6.86028 23.964 8.70805 23.1835C9.08257 23.0249 9.39408 23.1153 9.52011 23.4174C9.64791 23.7239 9.50413 23.9986 9.11363 24.1589C7.91196 24.6533 6.71473 24.7073 5.51661 24.1341C4.63 23.7106 3.74428 23.2783 2.83726 22.9018C1.25307 22.2444 0.430365 21.0076 0.128616 19.3934C-0.536119 15.839 1.44744 11.7512 4.64597 10.0644C5.90444 9.3999 7.21262 9.35561 8.51812 9.92261C9.54141 10.3665 10.5611 10.8245 11.556 11.3277C13.0399 12.079 13.8484 13.322 14.0508 14.9628C14.0916 15.295 13.9026 15.5546 13.6097 15.5971C13.2893 15.6432 13.0426 15.45 13.0026 15.0939C12.9059 14.2407 12.5758 13.5018 11.9634 12.8923C11.0892 12.0232 10.0553 11.8868 8.92815 12.2535C7.72648 12.6442 6.82212 13.4469 6.06331 14.4232C5.30716 15.3942 4.78531 16.4831 4.49244 17.68C4.46847 17.7766 4.44984 17.874 4.41966 17.9688C4.32293 18.2718 4.06821 18.4339 3.78776 18.3737C3.49667 18.3117 3.31295 18.0352 3.38928 17.7128C3.7567 16.1686 4.3602 14.7351 5.411 13.5187C6.25678 12.5397 7.2845 11.8106 8.48706 11.3268C8.55717 11.2985 8.62462 11.2648 8.70006 11.2303C7.56229 10.432 6.08904 10.4205 4.9566 11.1027C2.1459 12.7957 0.615851 16.1615 1.18474 19.3996C1.40217 20.6453 2.42457 21.7465 3.68393 22.0663Z" fill="#0FF789"/>
<path d="M24.9422 12.9915C26.9843 13.0154 28.683 14.6305 28.7567 16.6168C28.8357 18.7555 27.3154 20.5123 25.228 20.6886C25.0753 20.7019 24.9191 20.724 24.7709 20.6514C24.5357 20.5353 24.4115 20.3457 24.4567 20.0897C24.5064 19.8062 24.6981 19.6529 24.9919 19.6396C25.559 19.6148 26.0764 19.4439 26.5379 19.1125C27.4725 18.4418 27.8958 17.2813 27.618 16.1543C27.3535 15.0806 26.4128 14.2292 25.3203 14.0759C24.1585 13.9129 23.0297 14.4648 22.4617 15.4739C22.4182 15.551 22.3836 15.6325 22.341 15.7096C22.1714 16.0152 21.899 16.1224 21.6247 15.9922C21.3425 15.8584 21.2405 15.5554 21.394 15.2338C21.9434 14.0847 22.8442 13.3671 24.0849 13.073C24.368 13.0074 24.6538 12.9906 24.9422 12.9915Z" fill="#0FF789"/>
</g>
<defs>
<clipPath id="clip0_16_43">
<rect width="34" height="30" fill="white"/>
</clipPath>
</defs>
</svg>
