<svg width="28" height="28" viewBox="0 0 28 28" fill="none" xmlns="http://www.w3.org/2000/svg">
<g clip-path="url(#clip0_26_18)">
<path d="M24.882 0C25.2048 0.175435 25.316 0.453989 25.32 0.810216C25.324 1.19189 25.3615 1.57222 25.3897 2.02889C25.616 1.80256 25.8035 1.61508 25.9924 1.42759C26.1089 1.31242 26.22 1.19055 26.3419 1.08207C26.5227 0.92137 26.7491 0.918691 26.9098 1.06734C27.0772 1.22269 27.0906 1.47044 26.9178 1.65391C26.6553 1.93247 26.3794 2.19763 26.1102 2.46949C26.0794 2.50029 26.054 2.53511 25.995 2.60474C26.3446 2.62885 26.6567 2.65162 26.9687 2.67304C27.1147 2.68242 27.2607 2.6851 27.4053 2.69849C27.6719 2.72393 27.8687 2.84848 27.9625 3.11096C28.0522 3.36407 27.9732 3.57566 27.7937 3.7578C27.6478 3.90779 27.4978 4.0551 27.3491 4.20241C26.6205 4.93094 25.8879 5.6541 25.1673 6.38932C24.8767 6.68663 24.5432 6.80448 24.132 6.76296C23.7115 6.72145 23.2869 6.70538 22.853 6.67725C22.8784 6.81117 22.9655 6.87144 23.0244 6.94643C25.1124 9.58198 26.0647 12.5845 25.849 15.9311C25.4727 21.7781 21.1641 26.6702 15.417 27.7509C11.541 28.4808 8.02794 27.5902 4.89792 25.1917C4.63676 24.9908 4.57916 24.7685 4.72783 24.5623C4.88319 24.344 5.12561 24.3306 5.39482 24.5422C7.0154 25.8171 8.83689 26.6635 10.87 26.9916C14.5786 27.5915 17.9082 26.697 20.785 24.273C23.0753 22.3432 24.4776 19.867 24.9102 16.9061C25.4593 13.1523 24.4655 9.81902 21.965 6.94643C21.8418 6.80448 21.7735 6.78975 21.6355 6.93304C21.1359 7.45131 20.627 7.96021 20.1087 8.46107C19.9681 8.59633 19.952 8.674 20.0886 8.83069C21.306 10.2235 22.0547 11.8372 22.3306 13.6679C22.3909 14.0643 22.4257 14.4634 22.4284 14.8651C22.4297 15.2106 22.2931 15.4048 22.0373 15.4129C21.7815 15.4209 21.6141 15.2267 21.6101 14.8892C21.594 13.7348 21.3462 12.6327 20.8841 11.5774C20.5346 10.7792 20.0685 10.0547 19.5033 9.39181C19.3868 9.25521 19.3225 9.2445 19.1926 9.37842C18.685 9.90205 18.1693 10.4176 17.6457 10.9239C17.5144 11.0511 17.5358 11.1221 17.6376 11.2506C20.4515 14.8129 18.6542 19.942 14.2344 20.9652C10.953 21.7245 7.57926 19.4854 6.99531 16.1601C6.37788 12.6447 8.77796 9.4186 12.3258 9.0396C13.9545 8.86551 15.4304 9.31012 16.7162 10.3373C16.8715 10.4618 16.9572 10.4792 17.1072 10.3226C17.5974 9.8083 18.105 9.31012 18.6126 8.81194C18.7278 8.69811 18.7747 8.63249 18.618 8.50124C16.7001 6.88751 14.4942 6.15229 12.0044 6.44557C8.18999 6.8942 5.31579 9.51368 4.46264 13.23C3.39118 17.8877 6.5761 22.7195 11.2758 23.5699C15.9527 24.4163 20.2881 21.5933 21.3971 16.9797C21.4105 16.9262 21.4226 16.8726 21.4386 16.8217C21.515 16.5766 21.7065 16.4601 21.9382 16.5137C22.1579 16.5646 22.2824 16.7748 22.2302 17.0226C21.9945 18.1288 21.5967 19.1733 20.9699 20.1148C18.9957 23.0798 16.2166 24.585 12.6526 24.5435C8.28107 24.494 4.35951 21.1152 3.60815 16.8083C2.70946 11.6551 5.86358 6.88215 10.9771 5.77999C13.9826 5.13315 16.7001 5.86838 19.0774 7.82763C19.3587 8.05931 19.3546 8.06466 19.6212 7.7995C20.098 7.32275 20.5681 6.83796 21.0569 6.37325C21.215 6.22192 21.1868 6.15363 21.0395 6.02506C19.2877 4.4823 17.2693 3.49263 14.963 3.11632C11.8142 2.60341 8.87841 3.19667 6.23324 4.98183C3.20233 7.02678 1.39558 9.88732 0.933512 13.5259C0.472783 17.1511 1.50273 20.3491 3.88941 23.1133C3.99924 23.2405 4.09968 23.3664 4.06888 23.5498C4.03941 23.7199 3.93897 23.8311 3.77825 23.8793C3.58806 23.9355 3.44475 23.8498 3.3202 23.7105C2.6425 22.9539 2.05721 22.133 1.57371 21.2397C0.69913 19.6246 0.182149 17.9038 0.0455372 16.0691C0.0401799 15.9981 0.0160719 15.9284 0 15.8575C0 15.3111 0 14.7633 0 14.217C0.0160719 14.1379 0.0401799 14.0589 0.0468765 13.9786C0.381709 10.3721 1.92863 7.38569 4.70908 5.07691C9.1369 1.40214 15.4384 1.12225 20.1984 4.34303C20.5721 4.59614 20.9283 4.87469 21.3235 5.1653C21.294 4.71398 21.2806 4.29749 21.2364 3.88368C21.1922 3.46317 21.3087 3.12168 21.6154 2.82437C22.2878 2.1695 22.944 1.49857 23.611 0.838339C23.9003 0.551751 24.1655 0.239717 24.5003 0C24.6276 0 24.7548 0 24.882 0ZM18.168 15.0714C18.1693 13.8728 17.7957 12.8041 17.0738 11.8492C16.9586 11.6979 16.8889 11.6765 16.747 11.8251C16.2661 12.3233 15.78 12.8161 15.2764 13.2916C15.1009 13.4576 15.0768 13.5674 15.2027 13.7844C15.7358 14.6924 15.642 15.8173 14.9938 16.6556C14.3563 17.4792 13.2835 17.8556 12.287 17.573C11.2142 17.269 10.5512 16.5565 10.3758 15.453C10.207 14.3951 10.5901 13.5206 11.4687 12.9179C12.3674 12.3006 13.3263 12.2898 14.2759 12.8282C14.4313 12.9166 14.513 12.9166 14.6389 12.7867C15.1264 12.2831 15.6179 11.7809 16.1282 11.3002C16.3278 11.1127 16.2876 11.027 16.0934 10.881C14.3978 9.60608 12.0674 9.47618 10.2593 10.5663C8.40964 11.6805 7.42658 13.7938 7.77614 15.9057C8.21544 18.568 10.6624 20.4924 13.333 20.2755C16.0666 20.0545 18.1559 17.8047 18.168 15.0714ZM14.7219 15.0124C14.7273 14.7848 14.6656 14.533 14.5518 14.2893C14.4875 14.15 14.4339 14.1366 14.3241 14.2504C13.9879 14.5959 13.6451 14.9361 13.3022 15.2749C13.0678 15.5066 12.8428 15.5294 12.6567 15.3486C12.4705 15.1678 12.4892 14.9348 12.7156 14.7044C13.029 14.387 13.3464 14.0737 13.6612 13.7576C13.9036 13.5152 13.9022 13.5139 13.5701 13.388C12.8401 13.1108 12.0138 13.3438 11.5343 13.9598C11.0495 14.5826 11.0254 15.4289 11.4727 16.0717C11.92 16.7159 12.7317 16.9945 13.4736 16.7601C14.2237 16.5231 14.7206 15.8441 14.7219 15.0124ZM24.5084 1.10618C23.6807 1.93247 22.9079 2.70385 22.1351 3.47522C22.0815 3.52879 22.044 3.5904 22.0494 3.66807C22.0828 4.18098 22.119 4.6939 22.1565 5.26038C22.9829 4.43543 23.7677 3.65066 24.5539 2.86857C24.6048 2.81768 24.6142 2.76009 24.6102 2.69447C24.5767 2.18558 24.5445 1.67802 24.5084 1.10618ZM26.8924 3.49263C26.358 3.45648 25.8865 3.42969 25.4164 3.39086C25.2584 3.37746 25.1472 3.42434 25.0347 3.53817C24.3329 4.25062 23.6231 4.9537 22.9173 5.66214C22.8704 5.70901 22.7927 5.74249 22.7981 5.84561C23.2963 5.88043 23.7932 5.91391 24.2887 5.94873C24.3865 5.95542 24.4655 5.92462 24.5338 5.85498C25.3026 5.08628 26.0714 4.3149 26.8924 3.49263Z" fill="#0FF789"/>
</g>
<defs>
<clipPath id="clip0_26_18">
<rect width="28" height="28" fill="white"/>
</clipPath>
</defs>
</svg>
