<svg width="28" height="28" viewBox="0 0 28 28" fill="none" xmlns="http://www.w3.org/2000/svg">
<g clip-path="url(#clip0_26_8)">
<path d="M21.2592 17.7454C20.767 18.1795 20.2864 18.6196 19.7891 19.0404C18.2597 20.3353 16.6086 21.4558 14.8581 22.4285C14.4693 22.6447 14.3241 22.6213 14.0071 22.3049C13.6157 21.9158 13.2211 21.5301 12.839 21.1318C12.7163 21.0033 12.6187 20.9874 12.4627 21.0692C12.0113 21.3055 11.5541 21.5301 11.096 21.7513C10.4202 22.077 9.80025 21.9751 9.26794 21.4466C8.35265 20.5365 7.43904 19.6231 6.53043 18.7064C6.02732 18.1996 5.92386 17.5726 6.2309 16.9288C6.45534 16.4596 6.68145 15.9912 6.92675 15.5328C7.02186 15.355 6.97431 15.2556 6.84582 15.1329C6.53711 14.8382 6.23006 14.5409 5.94138 14.227C5.80288 14.0767 5.6602 14.0467 5.47164 14.0701C4.0474 14.2471 2.62233 14.414 1.19809 14.5927C0.625725 14.6645 0.374585 14.4366 0.489726 13.8747C1.24648 10.176 3.29648 7.5326 6.8625 6.1675C8.17744 5.66404 9.55829 5.57637 10.9508 5.73501C11.1811 5.76089 11.3355 5.70579 11.5032 5.55049C14.0129 3.23107 16.8881 1.55538 20.1963 0.655332C22.5325 0.0199553 24.9045 -0.152039 27.3091 0.13267C27.6604 0.174416 27.8031 0.328042 27.8531 0.700418C28.2211 3.4565 27.8832 6.14162 27.0113 8.76495C26.0326 11.7089 24.519 14.3414 22.3648 16.5882C22.2596 16.6976 22.2263 16.8028 22.2438 16.9489C22.9713 23.1098 18.1254 26.8987 14.0237 27.5349C13.6041 27.6 13.3321 27.3437 13.3821 26.9237C13.4772 26.128 13.5757 25.3332 13.6775 24.5383C13.72 24.2077 13.9178 24.039 14.2181 24.0633C14.5227 24.0875 14.7029 24.3096 14.6679 24.6544C14.6161 25.1612 14.5511 25.668 14.4826 26.1731C14.4568 26.3643 14.5168 26.4144 14.7012 26.3668C17.5948 25.6287 20.505 23.2141 21.1725 19.73C21.2809 19.1648 21.3243 18.5953 21.3126 18.0217C21.3093 17.9341 21.3377 17.8364 21.2592 17.7454ZM26.9829 2.69338C26.9971 2.41118 26.9337 1.87182 26.9128 1.33079C26.9061 1.1471 26.8352 1.08365 26.6525 1.06778C24.9512 0.921673 23.2633 1.006 21.5905 1.35166C17.9394 2.10643 14.7989 3.83973 12.088 6.37205C11.7401 6.69684 11.4106 6.79954 10.9458 6.74443C9.03933 6.51984 7.23379 6.85798 5.58094 7.85905C3.54512 9.09224 2.33781 10.9466 1.67284 13.1917C1.57188 13.534 1.57605 13.5415 1.93899 13.4981C3.08539 13.3604 4.23012 13.2117 5.37652 13.0815C5.55507 13.0615 5.65353 12.9938 5.73529 12.8427C6.11242 12.1472 6.54044 11.4818 6.98181 10.8255C7.52832 10.0132 8.10151 9.22081 8.73145 8.47105C8.97925 8.17549 9.23874 8.13625 9.4857 8.34331C9.731 8.54954 9.73434 8.80335 9.49572 9.10977C9.43147 9.19159 9.36472 9.27174 9.29964 9.35273C8.32345 10.5751 7.44488 11.8625 6.66309 13.2176C6.57882 13.3629 6.5613 13.4514 6.69647 13.5858C9.26961 16.1515 11.8386 18.7214 14.4025 21.2963C14.5327 21.4274 14.617 21.4241 14.7688 21.3356C17.951 19.4862 20.7628 17.2035 23.0055 14.2629C25.5528 10.9249 26.9395 7.17525 26.9829 2.69338ZM11.8686 20.2535C10.4819 18.8709 9.10941 17.5024 7.7369 16.134C7.54083 16.5306 7.32974 16.9589 7.11781 17.3864C7.00601 17.6118 7.0519 17.8155 7.22127 17.9867C8.1449 18.9159 9.07103 19.8419 9.99883 20.767C10.1807 20.9482 10.3918 20.9866 10.6263 20.8705C11.0443 20.6626 11.4631 20.4555 11.8686 20.2535Z" fill="#0FF789"/>
<path d="M7.37734 23.2902C7.36566 24.0792 7.08532 24.6612 6.65479 25.1763C5.77539 26.2283 4.61647 26.8704 3.36828 27.3671C2.49555 27.7153 1.59195 27.9524 0.648296 27.9984C0.186899 28.0209 -0.0358727 27.8213 0.00501049 27.3747C0.213598 25.1053 1.01124 23.0848 2.66909 21.4834C3.83468 20.3571 5.20636 20.3246 6.39781 21.3415C7.01607 21.8683 7.35147 22.5622 7.37734 23.2902ZM6.3636 23.4689C6.36777 22.7041 5.91055 22.0353 5.25141 21.7623C4.57893 21.4843 3.85054 21.6479 3.29152 22.239C2.09506 23.5065 1.37251 25.0118 1.08132 26.7284C1.05296 26.8946 1.07465 26.9522 1.26321 26.9205C2.95611 26.6316 4.44376 25.9236 5.7078 24.7572C6.10495 24.3906 6.34525 23.9423 6.3636 23.4689Z" fill="#0FF789"/>
<path d="M22.5026 9.42796C22.5051 11.7006 20.7354 13.5032 18.5002 13.5049C16.2683 13.5074 14.4911 11.7023 14.4878 9.4313C14.4845 7.25465 16.305 5.46625 18.5119 5.4771C20.7204 5.48879 22.5001 7.25048 22.5026 9.42796ZM18.4944 12.5147C20.0963 12.533 21.5114 11.1387 21.5306 9.52397C21.5489 7.92176 20.1355 6.48068 18.5211 6.45396C16.94 6.42808 15.4982 7.82407 15.4757 9.40458C15.4515 11.0619 16.844 12.4963 18.4944 12.5147Z" fill="#0FF789"/>
</g>
<defs>
<clipPath id="clip0_26_8">
<rect width="28" height="28" fill="white"/>
</clipPath>
</defs>
</svg>
